<?xml version="1.0" encoding="UTF-8" standalone="no"?>
<svg
   xmlns:dc="http://purl.org/dc/elements/1.1/"
   xmlns:cc="http://creativecommons.org/ns#"
   xmlns:rdf="http://www.w3.org/1999/02/22-rdf-syntax-ns#"
   xmlns:svg="http://www.w3.org/2000/svg"
   xmlns="http://www.w3.org/2000/svg"
   xmlns:sodipodi="http://sodipodi.sourceforge.net/DTD/sodipodi-0.dtd"
   xmlns:inkscape="http://www.inkscape.org/namespaces/inkscape"
   width="32"
   height="32"
   viewBox="0 0 8.4666665 8.4666669"
   version="1.1"
   id="svg8"
   inkscape:version="1.0.1 (3bc2e813f5, 2020-09-07)"
   sodipodi:docname="moon-yellow.svg">
  <defs
     id="defs2" />
  <sodipodi:namedview
     id="base"
     pagecolor="#848284"
     bordercolor="#666666"
     borderopacity="1.0"
     inkscape:pageopacity="0"
     inkscape:pageshadow="2"
     inkscape:zoom="15.839192"
     inkscape:cx="17.631089"
     inkscape:cy="10.916423"
     inkscape:document-units="mm"
     inkscape:current-layer="g1729"
     inkscape:document-rotation="0"
     showgrid="false"
     units="px"
     inkscape:snap-global="false"
     inkscape:window-width="1920"
     inkscape:window-height="1017"
     inkscape:window-x="-8"
     inkscape:window-y="-8"
     inkscape:window-maximized="1" />
  <metadata
     id="metadata5">
    <rdf:RDF>
      <cc:Work
         rdf:about="">
        <dc:format>image/svg+xml</dc:format>
        <dc:type
           rdf:resource="http://purl.org/dc/dcmitype/StillImage" />
        <dc:title />
      </cc:Work>
    </rdf:RDF>
  </metadata>
  <g
     inkscape:label="Layer 1"
     inkscape:groupmode="layer"
     id="layer1">
    <g
       id="g1729"
       transform="translate(1.4552084)"
       style="fill:#ffe680">
      <path
         id="path833"
         style="display:inline;opacity:1;fill:#ffcc00;stroke-width:1.00157;stroke-linecap:round;stroke-linejoin:round"
         d="M 16,0 A 15.999999,15.999999 0 0 0 0,16 15.999999,15.999999 0 0 0 16,32 15.999999,15.999999 0 0 0 21,31.199219 15.999999,15.999999 0 0 1 10,16 15.999999,15.999999 0 0 1 21,0.80078125 15.999999,15.999999 0 0 0 16,0 Z"
         inkscape:label="out-solid"
         transform="scale(0.26458333)" />
      <path
         style="display:inline;opacity:1;fill:#ffe680;stroke:none;stroke-width:0.264583;stroke-linecap:butt;stroke-linejoin:miter;stroke-miterlimit:4;stroke-dasharray:none;stroke-opacity:1"
         d="M 3.8419995,0.55541949 C 1.7756719,0.80052234 0.57231359,2.4733498 0.53871513,4.0842125 0.50364655,5.7655599 1.4976312,7.5661429 3.8299617,7.9079705 2.7043286,6.8686433 2.1021373,5.5605041 2.1089236,4.1969668 2.1156141,2.8526778 2.7144095,1.5297405 3.8419995,0.55541949 Z"
         id="path846"
         sodipodi:nodetypes="cscsc"
         inkscape:label="overfill" />
      <path
         id="path848"
         style="display:none;opacity:1;fill:#ffe680;stroke-width:1.00157;stroke-linecap:round;stroke-linejoin:round"
         d="M 16,0 A 15.999999,15.999999 0 0 0 0,16 15.999999,15.999999 0 0 0 16,32 15.999999,15.999999 0 0 0 21,31.199219 15.999999,15.999999 0 0 1 10,16 15.999999,15.999999 0 0 1 21,0.80078125 15.999999,15.999999 0 0 0 16,0 Z M 14.521484,2.0996094 C 10.259727,5.7820825 7.9959901,10.782504 7.9707031,15.863281 7.9450541,21.016808 10.220248,25.960506 14.474609,29.888672 5.659502,28.596725 1.9026136,21.790246 2.0351562,15.435547 2.1621426,9.3472469 6.7117423,3.0259824 14.521484,2.0996094 Z"
         inkscape:label="outline"
         transform="scale(0.26458333)" />
    </g>
  </g>
</svg>
