<?xml version="1.0" encoding="UTF-8" standalone="no"?>
<svg
   xmlns:dc="http://purl.org/dc/elements/1.1/"
   xmlns:cc="http://creativecommons.org/ns#"
   xmlns:rdf="http://www.w3.org/1999/02/22-rdf-syntax-ns#"
   xmlns:svg="http://www.w3.org/2000/svg"
   xmlns="http://www.w3.org/2000/svg"
   xmlns:sodipodi="http://sodipodi.sourceforge.net/DTD/sodipodi-0.dtd"
   xmlns:inkscape="http://www.inkscape.org/namespaces/inkscape"
   width="32"
   height="32"
   viewBox="0 0 8.4666665 8.4666669"
   version="1.1"
   id="svg8"
   inkscape:version="1.0.1 (3bc2e813f5, 2020-09-07)"
   sodipodi:docname="sun-black.svg">
  <defs
     id="defs2" />
  <sodipodi:namedview
     id="base"
     pagecolor="#848284"
     bordercolor="#666666"
     borderopacity="1.0"
     inkscape:pageopacity="0"
     inkscape:pageshadow="2"
     inkscape:zoom="15.839192"
     inkscape:cx="13.59087"
     inkscape:cy="17.76369"
     inkscape:document-units="mm"
     inkscape:current-layer="layer1"
     inkscape:document-rotation="0"
     showgrid="false"
     units="px"
     inkscape:snap-global="false"
     inkscape:window-width="1920"
     inkscape:window-height="1017"
     inkscape:window-x="-8"
     inkscape:window-y="-8"
     inkscape:window-maximized="1" />
  <metadata
     id="metadata5">
    <rdf:RDF>
      <cc:Work
         rdf:about="">
        <dc:format>image/svg+xml</dc:format>
        <dc:type
           rdf:resource="http://purl.org/dc/dcmitype/StillImage" />
        <dc:title></dc:title>
      </cc:Work>
    </rdf:RDF>
  </metadata>
  <g
     inkscape:label="Layer 1"
     inkscape:groupmode="layer"
     id="layer1">
    <path
       id="path833"
       style="display:none;opacity:1;fill:#f9f9f9;stroke-width:1.00157;stroke-linecap:round;stroke-linejoin:round"
       d="M 16,0 A 15.999999,15.999999 0 0 0 0,16 15.999999,15.999999 0 0 0 16,32 15.999999,15.999999 0 0 0 21,31.199219 15.999999,15.999999 0 0 1 10,16 15.999999,15.999999 0 0 1 21,0.80078125 15.999999,15.999999 0 0 0 16,0 Z"
       transform="scale(0.26458333)"
       inkscape:label="out-solid" />
    <path
       style="display:none;opacity:1;fill:#00ff00;stroke:none;stroke-width:0.264583;stroke-linecap:butt;stroke-linejoin:miter;stroke-miterlimit:4;stroke-dasharray:none;stroke-opacity:1"
       d="M 3.8419995,0.55541949 C 1.7756719,0.80052234 0.57231359,2.4733498 0.53871513,4.0842125 0.50364655,5.7655599 1.4976312,7.5661429 3.8299617,7.9079705 2.7043286,6.8686433 2.1021373,5.5605041 2.1089236,4.1969668 2.1156141,2.8526778 2.7144095,1.5297405 3.8419995,0.55541949 Z"
       id="path846"
       sodipodi:nodetypes="cscsc"
       inkscape:label="overfill" />
    <path
       id="path848"
       style="display:none;opacity:1;fill:#f9f9f9;stroke-width:1.00157;stroke-linecap:round;stroke-linejoin:round"
       d="M 16,0 A 15.999999,15.999999 0 0 0 0,16 15.999999,15.999999 0 0 0 16,32 15.999999,15.999999 0 0 0 21,31.199219 15.999999,15.999999 0 0 1 10,16 15.999999,15.999999 0 0 1 21,0.80078125 15.999999,15.999999 0 0 0 16,0 Z M 14.521484,2.0996094 C 10.259727,5.7820825 7.9959901,10.782504 7.9707031,15.863281 7.9450541,21.016808 10.220248,25.960506 14.474609,29.888672 5.659502,28.596725 1.9026136,21.790246 2.0351562,15.435547 2.1621426,9.3472469 6.7117423,3.0259824 14.521484,2.0996094 Z"
       transform="scale(0.26458333)"
       inkscape:label="outline" />
    <rect
       style="display:none;opacity:0.998235;fill:#00ff00;fill-opacity:0.742972;stroke:none;stroke-width:0.379148;stroke-linecap:round;stroke-linejoin:round;stroke-miterlimit:4;stroke-dasharray:none;stroke-opacity:1"
       id="rect941"
       width="0.047874771"
       height="11.920817"
       x="5.9706607"
       y="-5.9248748"
       rx="0.30331907"
       ry="0.30331907"
       transform="matrix(0.70920523,0.70500208,-0.70920523,0.70500208,0,0)"
       sodipodi:insensitive="true"
       inkscape:label="guide sw &gt; ne" />
    <rect
       style="display:none;opacity:0.998235;fill:#00ff00;fill-opacity:0.742972;stroke:none;stroke-width:0.379148;stroke-linecap:round;stroke-linejoin:round;stroke-miterlimit:4;stroke-dasharray:none;stroke-opacity:1"
       id="rect941-3"
       width="0.047874771"
       height="11.920817"
       x="-0.029854164"
       y="-11.925389"
       rx="0.30331907"
       ry="0.30331907"
       transform="matrix(-0.70500209,0.70920523,-0.70500209,-0.70920523,0,0)"
       inkscape:label="guide nw &gt; se" />
    <circle
       style="display:none;opacity:0.998235;fill:#ffff00;fill-opacity:0.742972;stroke:none;stroke-width:0.264583;stroke-linecap:round;stroke-linejoin:round;stroke-miterlimit:4;stroke-dasharray:none;stroke-opacity:1"
       id="path1001-5"
       cx="4.2333331"
       cy="4.2333331"
       r="4.2333331"
       sodipodi:insensitive="true"
       inkscape:label="guide outer" />
    <circle
       style="display:none;opacity:0.998235;fill:#ffff00;fill-opacity:0.742972;stroke:none;stroke-width:0.264583;stroke-linecap:round;stroke-linejoin:round;stroke-miterlimit:4;stroke-dasharray:none;stroke-opacity:1"
       id="path1001-0"
       cx="4.2333331"
       cy="4.2333331"
       r="2.6458333"
       sodipodi:insensitive="true"
       inkscape:label="guide inner" />
    <g
       id="g1155"
       style="fill:#1a1a1a">
      <circle
         style="display:inline;opacity:1;fill:#1a1a1a;fill-opacity:1;stroke:none;stroke-width:0.264583;stroke-linecap:round;stroke-linejoin:round;stroke-miterlimit:4;stroke-dasharray:none;stroke-opacity:1"
         id="path1001"
         cx="4.2333331"
         cy="4.2333331"
         r="2.1166666"
         inkscape:label="circle" />
      <path
         sodipodi:type="star"
         style="display:inline;opacity:1;fill:#1a1a1a;fill-opacity:1;stroke:none;stroke-width:0.264583;stroke-linecap:round;stroke-linejoin:round;stroke-miterlimit:4;stroke-dasharray:none;stroke-opacity:1"
         id="path1037"
         sodipodi:sides="3"
         sodipodi:cx="4.2277446"
         sodipodi:cy="0.99218935"
         sodipodi:r1="0.99225777"
         sodipodi:r2="0.49612892"
         sodipodi:arg1="-1.5827005"
         sodipodi:arg2="-0.53550298"
         inkscape:flatsided="true"
         inkscape:rounded="0.09"
         inkscape:randomized="0"
         d="M 4.2159328,1.8791345e-6 C 4.3705996,-0.00183939 5.1686488,1.3431879 5.09291,1.4780538 5.0171712,1.6129198 3.4533188,1.631537 3.3743909,1.4985123 3.2954629,1.3654877 4.0612661,0.00184315 4.2159328,1.8791345e-6 Z"
         inkscape:transform-center-x="-0.0055885923"
         inkscape:transform-center-y="-0.19755201"
         inkscape:label="N" />
      <path
         sodipodi:type="star"
         style="opacity:1;fill:#1a1a1a;fill-opacity:1;stroke:none;stroke-width:0.264583;stroke-linecap:round;stroke-linejoin:round;stroke-miterlimit:4;stroke-dasharray:none;stroke-opacity:1"
         id="path1037-3"
         sodipodi:sides="3"
         sodipodi:cx="9.7509222"
         sodipodi:cy="2.2055504"
         sodipodi:r1="0.99225777"
         sodipodi:r2="0.49612892"
         sodipodi:arg1="-1.5827005"
         sodipodi:arg2="-0.53550298"
         inkscape:flatsided="true"
         inkscape:rounded="0.09"
         inkscape:randomized="0"
         d="M 9.7391105,1.213363 C 9.8937772,1.2115217 10.691826,2.556549 10.616088,2.6914149 10.540349,2.8262809 8.9764965,2.8448981 8.8975685,2.7118734 8.8186406,2.5788487 9.5844438,1.2152042 9.7391105,1.213363 Z"
         inkscape:transform-center-x="-0.19755193"
         inkscape:transform-center-y="0.005588595"
         transform="rotate(90,7.6016027,2.0784251)"
         inkscape:label="E" />
      <path
         sodipodi:type="star"
         style="opacity:1;fill:#1a1a1a;fill-opacity:1;stroke:none;stroke-width:0.264583;stroke-linecap:round;stroke-linejoin:round;stroke-miterlimit:4;stroke-dasharray:none;stroke-opacity:1"
         id="path1037-3-4"
         sodipodi:sides="3"
         sodipodi:cx="9.7509222"
         sodipodi:cy="2.2055504"
         sodipodi:r1="0.99225777"
         sodipodi:r2="0.49612892"
         sodipodi:arg1="-1.5827005"
         sodipodi:arg2="-0.53550298"
         inkscape:flatsided="true"
         inkscape:rounded="0.09"
         inkscape:randomized="0"
         d="M 9.7391105,1.213363 C 9.8937772,1.2115217 10.691826,2.556549 10.616088,2.6914149 10.540349,2.8262809 8.9764965,2.8448981 8.8975685,2.7118734 8.8186406,2.5788487 9.5844438,1.2152042 9.7391105,1.213363 Z"
         inkscape:transform-center-x="0.19755171"
         inkscape:transform-center-y="-0.0055883763"
         transform="rotate(-90,6.3882416,7.6016026)"
         inkscape:label="W" />
      <path
         sodipodi:type="star"
         style="opacity:1;fill:#1a1a1a;fill-opacity:1;stroke:none;stroke-width:0.264583;stroke-linecap:round;stroke-linejoin:round;stroke-miterlimit:4;stroke-dasharray:none;stroke-opacity:1"
         id="path1037-2"
         sodipodi:sides="3"
         sodipodi:cx="-4.2389221"
         sodipodi:cy="-7.4744773"
         sodipodi:r1="0.99225777"
         sodipodi:r2="0.49612892"
         sodipodi:arg1="-1.5827005"
         sodipodi:arg2="-0.53550298"
         inkscape:flatsided="true"
         inkscape:rounded="0.09"
         inkscape:randomized="0"
         d="m -4.2507338,-8.4666648 c 0.1546667,-0.00184 0.9527159,1.343186 0.8769771,1.478052 -0.075739,0.1348659 -1.6395912,0.1534832 -1.7185191,0.020459 -0.078928,-0.1330247 0.6868752,-1.4966692 0.841542,-1.4985105 z"
         inkscape:transform-center-x="0.0055886729"
         inkscape:transform-center-y="0.19755199"
         transform="scale(-1)"
         inkscape:label="S" />
      <path
         sodipodi:type="star"
         style="opacity:1;fill:#1a1a1a;fill-opacity:1;stroke:none;stroke-width:0.264583;stroke-linecap:round;stroke-linejoin:round;stroke-miterlimit:4;stroke-dasharray:none;stroke-opacity:1"
         id="path1037-27"
         sodipodi:sides="3"
         sodipodi:cx="8.9949694"
         sodipodi:cy="2.9496911"
         sodipodi:r1="0.99225777"
         sodipodi:r2="0.49612892"
         sodipodi:arg1="-1.5827005"
         sodipodi:arg2="-0.53550298"
         inkscape:flatsided="true"
         inkscape:rounded="0.09"
         inkscape:randomized="0"
         d="m 8.9831576,1.9575036 c 0.1546668,-0.00184 0.952716,1.343186 0.8769772,1.4780519 C 9.784396,3.5704215 8.2205436,3.5890387 8.1416157,3.456014 8.0626877,3.3229894 8.8284909,1.9593449 8.9831576,1.9575036 Z"
         inkscape:transform-center-x="0.12476819"
         inkscape:transform-center-y="0.11454614"
         transform="rotate(45,8.9615234,-0.49843073)"
         inkscape:label="NE" />
      <path
         sodipodi:type="star"
         style="opacity:1;fill:#1a1a1a;fill-opacity:1;stroke:none;stroke-width:0.264583;stroke-linecap:round;stroke-linejoin:round;stroke-miterlimit:4;stroke-dasharray:none;stroke-opacity:1"
         id="path1037-27-5"
         sodipodi:sides="3"
         sodipodi:cx="8.9949694"
         sodipodi:cy="2.9496911"
         sodipodi:r1="0.99225777"
         sodipodi:r2="0.49612892"
         sodipodi:arg1="-1.5827005"
         sodipodi:arg2="-0.53550298"
         inkscape:flatsided="true"
         inkscape:rounded="0.09"
         inkscape:randomized="0"
         d="m 8.9831576,1.9575036 c 0.1546668,-0.00184 0.952716,1.343186 0.8769772,1.4780519 C 9.784396,3.5704215 8.2205436,3.5890387 8.1416157,3.456014 8.0626877,3.3229894 8.8284909,1.9593449 8.9831576,1.9575036 Z"
         inkscape:transform-center-x="-0.1247682"
         inkscape:transform-center-y="-0.11454622"
         transform="rotate(-135,6.2003503,6.1956539)"
         inkscape:label="SW" />
      <path
         sodipodi:type="star"
         style="opacity:1;fill:#1a1a1a;fill-opacity:1;stroke:none;stroke-width:0.264583;stroke-linecap:round;stroke-linejoin:round;stroke-miterlimit:4;stroke-dasharray:none;stroke-opacity:1"
         id="path1037-6"
         sodipodi:sides="3"
         sodipodi:cx="9.2548285"
         sodipodi:cy="3.8828199"
         sodipodi:r1="0.99225777"
         sodipodi:r2="0.49612892"
         sodipodi:arg1="-1.5827005"
         sodipodi:arg2="-0.53550298"
         inkscape:flatsided="true"
         inkscape:rounded="0.09"
         inkscape:randomized="0"
         d="m 9.2430167,2.8906324 c 0.1546667,-0.00184 0.9527163,1.343186 0.8769773,1.478052 C 10.044255,4.5035503 8.4804027,4.5221676 8.4014748,4.3891429 8.3225468,4.2561182 9.08835,2.8924737 9.2430167,2.8906324 Z"
         inkscape:transform-center-x="-0.11454613"
         inkscape:transform-center-y="0.12476822"
         transform="rotate(-45,3.2465116,11.734083)"
         inkscape:label="NW" />
      <path
         sodipodi:type="star"
         style="opacity:1;fill:#1a1a1a;fill-opacity:1;stroke:none;stroke-width:0.264583;stroke-linecap:round;stroke-linejoin:round;stroke-miterlimit:4;stroke-dasharray:none;stroke-opacity:1"
         id="path1037-6-0"
         sodipodi:sides="3"
         sodipodi:cx="9.2548285"
         sodipodi:cy="3.8828199"
         sodipodi:r1="0.99225777"
         sodipodi:r2="0.49612892"
         sodipodi:arg1="-1.5827005"
         sodipodi:arg2="-0.53550298"
         inkscape:flatsided="true"
         inkscape:rounded="0.09"
         inkscape:randomized="0"
         d="m 9.2430167,2.8906324 c 0.1546667,-0.00184 0.9527163,1.343186 0.8769773,1.478052 C 10.044255,4.5035503 8.4804027,4.5221676 8.4014748,4.3891429 8.3225468,4.2561182 9.08835,2.8924737 9.2430167,2.8906324 Z"
         inkscape:transform-center-x="0.11454607"
         inkscape:transform-center-y="-0.12476816"
         transform="rotate(135,7.3252749,4.645311)"
         inkscape:label="SE" />
    </g>
  </g>
</svg>
